<?xml version="1.0" standalone="no"?><!DOCTYPE svg PUBLIC "-//W3C//DTD SVG 1.1//EN" "http://www.w3.org/Graphics/SVG/1.1/DTD/svg11.dtd"><svg t="1719897952748" class="icon" viewBox="0 0 1024 1024" version="1.1" xmlns="http://www.w3.org/2000/svg" p-id="24026" xmlns:xlink="http://www.w3.org/1999/xlink" width="16" height="16"><path d="M0 0h1024v1024H0z" fill-opacity="0" p-id="24027"></path><path d="M352 499.2L217.6 160l345.6 12.8v25.6l-313.6-12.8 121.6 294.4 268.8 128 268.8-89.6 6.4 25.6-281.6 83.2z" fill="#B4B8C0" p-id="24028"></path><path d="M217.6 160m-89.6 0a89.6 89.6 0 1 0 179.2 0 89.6 89.6 0 1 0-179.2 0Z" fill="#B4B8C0" p-id="24029"></path><path d="M537.6 230.4c19.2 6.4 38.4 6.4 51.2 0 19.2-6.4 25.6-25.6 25.6-44.8s-6.4-38.4-19.2-51.2c-19.2-6.4-38.4-6.4-57.6 0-12.8 12.8-25.6 25.6-25.6 44.8s12.8 38.4 25.6 51.2zM915.2 473.6c-32 0-51.2 25.6-51.2 51.2 0 32 25.6 51.2 51.2 51.2 32 0 51.2-25.6 51.2-51.2s-19.2-51.2-51.2-51.2zM851.2 710.4c-19.2-6.4-38.4-6.4-51.2 0-6.4 0-6.4 6.4-12.8 6.4l-57.6-44.8c12.8-12.8 19.2-32 19.2-51.2 0-51.2-38.4-89.6-89.6-89.6s-96 38.4-96 89.6c0 51.2 38.4 89.6 89.6 89.6 19.2 0 44.8-6.4 57.6-19.2l64 51.2c-6.4 0-6.4 6.4-6.4 12.8 0 19.2 12.8 38.4 25.6 44.8 19.2 6.4 38.4 6.4 51.2 0s25.6-25.6 25.6-44.8-6.4-32-19.2-44.8zM531.2 838.4c-19.2-6.4-38.4-6.4-57.6 0 0 0-6.4 0-6.4 6.4l-96-70.4c12.8-12.8 12.8-32 12.8-51.2 0-38.4-25.6-76.8-64-83.2l6.4-44.8h19.2c76.8 0 140.8-64 140.8-140.8s-64-140.8-140.8-140.8-140.8 64-140.8 140.8c0 64 44.8 115.2 102.4 134.4l-6.4 51.2c-51.2 0-89.6 38.4-89.6 89.6 0 19.2 6.4 44.8 25.6 57.6l-83.2 76.8c-6.4-6.4-19.2-12.8-32-12.8-32 0-51.2 25.6-51.2 51.2 0 19.2 12.8 38.4 25.6 44.8 12.8 12.8 32 12.8 51.2 6.4 19.2-6.4 25.6-25.6 25.6-44.8 0-6.4 0-19.2-6.4-25.6l83.2-83.2H256c25.6 12.8 64 12.8 89.6 0 6.4 0 12.8-6.4 12.8-12.8l96 70.4c-6.4 12.8-6.4 19.2-6.4 25.6 0 19.2 12.8 38.4 25.6 44.8 19.2 6.4 38.4 6.4 51.2 0 19.2-6.4 25.6-25.6 25.6-44.8s-6.4-32-19.2-44.8z" fill="#B4B8C0" p-id="24030"></path></svg>